<?xml version="1.0" encoding="UTF-8" standalone="no"?><svg xmlns="http://www.w3.org/2000/svg" xmlns:xlink="http://www.w3.org/1999/xlink" contentScriptType="application/ecmascript" contentStyleType="text/css" height="190px" preserveAspectRatio="none" style="width:507px;height:190px;" version="1.1" viewBox="0 0 507 190" width="507px" zoomAndPan="magnify"><defs><filter height="300%" id="f18v19xtt11go4" width="300%" x="-1" y="-1"><feGaussianBlur result="blurOut" stdDeviation="2.0"/><feColorMatrix in="blurOut" result="blurOut2" type="matrix" values="0 0 0 0 0 0 0 0 0 0 0 0 0 0 0 0 0 0 .4 0"/><feOffset dx="4.0" dy="4.0" in="blurOut2" result="blurOut3"/><feBlend in="SourceGraphic" in2="blurOut3" mode="normal"/></filter></defs><g><!--MD5=[53ccf4b3ee6cf4337a0ab93ac09644f3]
entity main--><rect fill="#F0E68C" filter="url(#f18v19xtt11go4)" height="36.2969" style="stroke: #A80036; stroke-width: 1.5;" width="90" x="252" y="8"/><rect fill="#F0E68C" height="5" style="stroke: #A80036; stroke-width: 1.5;" width="10" x="247" y="13"/><rect fill="#F0E68C" height="5" style="stroke: #A80036; stroke-width: 1.5;" width="10" x="247" y="34.2969"/><text fill="#000000" font-family="sans-serif" font-size="14" lengthAdjust="spacingAndGlyphs" textLength="70" x="262" y="30.9951">Main Loop</text><!--MD5=[cf0c1d8797229a35cbc1fe3f2f056ab0]
entity devices--><ellipse cx="212" cy="147.5" fill="#98FB98" filter="url(#f18v19xtt11go4)" rx="8" ry="8" style="stroke: #A80036; stroke-width: 2.0;"/><text fill="#000000" font-family="sans-serif" font-size="14" lengthAdjust="spacingAndGlyphs" textLength="55" x="184.5" y="177.4951">Devices</text><!--MD5=[866e819fedfb67f173396a1d9cc4a1b8]
entity hardware--><rect fill="#98FB98" filter="url(#f18v19xtt11go4)" height="52.5938" style="stroke: #A80036; stroke-width: 1.5;" width="162" x="6" y="121"/><rect fill="#98FB98" height="5" style="stroke: #A80036; stroke-width: 1.5;" width="10" x="1" y="126"/><rect fill="#98FB98" height="5" style="stroke: #A80036; stroke-width: 1.5;" width="10" x="1" y="163.5938"/><text fill="#000000" font-family="sans-serif" font-size="14" font-style="italic" lengthAdjust="spacingAndGlyphs" textLength="82" x="46" y="143.9951">«hardware»</text><text fill="#000000" font-family="sans-serif" font-size="14" lengthAdjust="spacingAndGlyphs" textLength="142" x="16" y="160.292">Devices STM32F303</text><!--MD5=[0bb9c21cf77994669bd82826522e1a46]
entity adapters--><rect fill="#87CEFA" filter="url(#f18v19xtt11go4)" height="36.2969" style="stroke: #A80036; stroke-width: 1.5;" width="82" x="256" y="129.5"/><rect fill="#87CEFA" height="5" style="stroke: #A80036; stroke-width: 1.5;" width="10" x="251" y="134.5"/><rect fill="#87CEFA" height="5" style="stroke: #A80036; stroke-width: 1.5;" width="10" x="251" y="155.7969"/><text fill="#000000" font-family="sans-serif" font-size="14" lengthAdjust="spacingAndGlyphs" textLength="62" x="266" y="152.4951">Adapters</text><!--MD5=[8890788e37b11dd3053f547e2b5ce265]
entity domain--><rect fill="#FFA500" filter="url(#f18v19xtt11go4)" height="52.5938" style="stroke: #A80036; stroke-width: 1.5;" width="89" x="407.5" y="121"/><rect fill="#FFA500" height="5" style="stroke: #A80036; stroke-width: 1.5;" width="10" x="402.5" y="126"/><rect fill="#FFA500" height="5" style="stroke: #A80036; stroke-width: 1.5;" width="10" x="402.5" y="163.5938"/><text fill="#000000" font-family="sans-serif" font-size="14" font-style="italic" lengthAdjust="spacingAndGlyphs" textLength="69" x="417.5" y="143.9951">«domain»</text><text fill="#000000" font-family="sans-serif" font-size="14" lengthAdjust="spacingAndGlyphs" textLength="54" x="425" y="160.292">Pathbot</text><!--MD5=[e72ef85e9967ca802a86cf623cc50af0]
link main to adapters--><path d="M297,44.12 C297,65.24 297,101.19 297,124.38 " fill="none" id="main-&gt;adapters" style="stroke: #A80036; stroke-width: 1.0;"/><polygon fill="#A80036" points="297,129.41,301,120.41,297,124.41,293,120.41,297,129.41" style="stroke: #A80036; stroke-width: 1.0;"/><text fill="#000000" font-family="sans-serif" font-size="13" lengthAdjust="spacingAndGlyphs" textLength="96" x="298" y="87.0669">data mappings</text><!--MD5=[d9f97d3e9e95b2059af8043fa38c1403]
link main to domain--><path d="M342.15,40.64 C362.26,48.24 385.32,59.21 403,74 C416.83,85.58 428.37,102.01 436.77,116.3 " fill="none" id="main-&gt;domain" style="stroke: #A80036; stroke-width: 1.0;"/><polygon fill="#A80036" points="439.28,120.66,438.2426,110.8659,436.7793,116.3303,431.315,114.867,439.28,120.66" style="stroke: #A80036; stroke-width: 1.0;"/><text fill="#000000" font-family="sans-serif" font-size="13" lengthAdjust="spacingAndGlyphs" textLength="64" x="419" y="87.0669">use cases</text><!--MD5=[1188cc1b06acdbcbcd9b746ca29043b6]
link main to hardware--><path d="M266.91,44.12 C232.88,63.49 176.94,95.32 136.47,118.35 " fill="none" id="main-&gt;hardware" style="stroke: #A80036; stroke-width: 1.0; stroke-dasharray: 7.0,7.0;"/><polygon fill="#A80036" points="132.1,120.83,141.898,119.8308,136.4395,118.3462,137.924,112.8877,132.1,120.83" style="stroke: #A80036; stroke-width: 1.0;"/><text fill="#000000" font-family="sans-serif" font-size="13" lengthAdjust="spacingAndGlyphs" textLength="28" x="212" y="87.0669">links</text><!--MD5=[3a210b52c47e30b882d5fcfba08d6bdc]
link adapters to domain--><path d="M338.13,147.5 C357.81,147.5 381.53,147.5 402.22,147.5 " fill="none" id="adapters-&gt;domain" style="stroke: #A80036; stroke-width: 1.0;"/><polygon fill="#A80036" points="407.41,147.5,398.41,143.5,402.41,147.5,398.41,151.5,407.41,147.5" style="stroke: #A80036; stroke-width: 1.0;"/><text fill="#000000" font-family="sans-serif" font-size="13" lengthAdjust="spacingAndGlyphs" textLength="33" x="356.25" y="140.5669">ports</text><!--MD5=[2b65895d7fccad255aaa521ace61e0e1]
reverse link devices to adapters--><path d="M226.43,147.5 C236.25,147.5 246.07,147.5 255.9,147.5 " fill="none" id="devices&lt;-adapters" style="stroke: #A80036; stroke-width: 1.0;"/><polygon fill="#A80036" points="221.3,147.5,230.3,151.5,226.3,147.5,230.3,143.5,221.3,147.5" style="stroke: #A80036; stroke-width: 1.0;"/><!--MD5=[93541f53e8017b17e22790131d96fe50]
link hardware to devices--><path d="M168.05,147.5 C179.61,147.5 191.17,147.5 202.73,147.5 " fill="none" id="hardware-devices" style="stroke: #A80036; stroke-width: 1.0;"/><!--MD5=[9ebb673e5564dd1872bb7a3c52b01293]
@startuml app-architecture

[Main Loop] as main #khaki
() "Devices" as devices #palegreen
[Devices STM32F303] as hardware <<hardware>> #palegreen 
[Adapters] as adapters #lightskyblue
[Pathbot] as domain <<domain>> #orange 

main -down-> adapters : data mappings
main - -> domain : use cases
main ..> hardware : links
adapters -right-> domain : ports
adapters -left-> devices
hardware -right- devices 

@enduml

PlantUML version 1.2020.02(Sun Mar 01 11:22:07 CET 2020)
(GPL source distribution)
Java Runtime: OpenJDK Runtime Environment
JVM: OpenJDK 64-Bit Server VM
Java Version: 21.0.7+6-Debian-1
Operating System: Linux
Default Encoding: UTF-8
Language: pl
Country: PL
--></g></svg>