<?xml version="1.0" encoding="UTF-8" standalone="no"?><svg xmlns="http://www.w3.org/2000/svg" xmlns:xlink="http://www.w3.org/1999/xlink" contentScriptType="application/ecmascript" contentStyleType="text/css" height="816px" preserveAspectRatio="none" style="width:264px;height:816px;" version="1.1" viewBox="0 0 264 816" width="264px" zoomAndPan="magnify"><defs><filter height="300%" id="f1guq50wxclbis" width="300%" x="-1" y="-1"><feGaussianBlur result="blurOut" stdDeviation="2.0"/><feColorMatrix in="blurOut" result="blurOut2" type="matrix" values="0 0 0 0 0 0 0 0 0 0 0 0 0 0 0 0 0 0 .4 0"/><feOffset dx="4.0" dy="4.0" in="blurOut2" result="blurOut3"/><feBlend in="SourceGraphic" in2="blurOut3" mode="normal"/></filter></defs><g><ellipse cx="111.5" cy="20" fill="#000000" filter="url(#f1guq50wxclbis)" rx="10" ry="10" style="stroke: none; stroke-width: 1.0;"/><rect fill="#98FB98" filter="url(#f1guq50wxclbis)" height="33.9688" rx="12.5" ry="12.5" style="stroke: #A80036; stroke-width: 1.5;" width="128" x="47.5" y="50"/><text fill="#000000" font-family="sans-serif" font-size="12" lengthAdjust="spacingAndGlyphs" textLength="104" x="61.5" y="71.1387">init devices layer</text><rect fill="#FFA500" filter="url(#f1guq50wxclbis)" height="33.9688" rx="12.5" ry="12.5" style="stroke: #A80036; stroke-width: 1.5;" width="127" x="48" y="103.9688"/><text fill="#000000" font-family="sans-serif" font-size="12" lengthAdjust="spacingAndGlyphs" textLength="103" x="62" y="125.1074">init domain layer</text><rect fill="#F0E68C" filter="url(#f1guq50wxclbis)" height="33.9688" rx="12.5" ry="12.5" style="stroke: #A80036; stroke-width: 1.5;" width="200" x="11.5" y="201.9375"/><text fill="#000000" font-family="sans-serif" font-size="12" lengthAdjust="spacingAndGlyphs" textLength="172" x="25.5" y="223.0762">handle manual control task</text><rect fill="#FFA500" filter="url(#f1guq50wxclbis)" height="33.9688" rx="12.5" ry="12.5" style="stroke: #A80036; stroke-width: 1.5;" width="139" x="42" y="304.3086"/><text fill="#000000" font-family="sans-serif" font-size="12" lengthAdjust="spacingAndGlyphs" textLength="115" x="56" y="325.4473">handle commands</text><polygon fill="#FEFECE" filter="url(#f1guq50wxclbis)" points="39.5,255.9063,183.5,255.9063,195.5,267.9063,183.5,279.9063,39.5,279.9063,27.5,267.9063,39.5,255.9063" style="stroke: #A80036; stroke-width: 1.5;"/><text fill="#000000" font-family="sans-serif" font-size="11" lengthAdjust="spacingAndGlyphs" textLength="20" x="115.5" y="290.1167">yes</text><text fill="#000000" font-family="sans-serif" font-size="11" lengthAdjust="spacingAndGlyphs" textLength="144" x="39.5" y="271.7144">remote commands ready</text><polygon fill="#FEFECE" filter="url(#f1guq50wxclbis)" points="111.5,358.2773,123.5,370.2773,111.5,382.2773,99.5,370.2773,111.5,358.2773" style="stroke: #A80036; stroke-width: 1.5;"/><rect fill="#F0E68C" filter="url(#f1guq50wxclbis)" height="33.9688" rx="12.5" ry="12.5" style="stroke: #A80036; stroke-width: 1.5;" width="195" x="14" y="402.2773"/><text fill="#000000" font-family="sans-serif" font-size="12" lengthAdjust="spacingAndGlyphs" textLength="167" x="28" y="423.416">handle route tracking task</text><rect fill="#FFA500" filter="url(#f1guq50wxclbis)" height="33.9688" rx="12.5" ry="12.5" style="stroke: #A80036; stroke-width: 1.5;" width="146" x="38.5" y="504.6484"/><text fill="#000000" font-family="sans-serif" font-size="12" lengthAdjust="spacingAndGlyphs" textLength="122" x="52.5" y="525.7871">handle coordinates</text><polygon fill="#FEFECE" filter="url(#f1guq50wxclbis)" points="60,456.2461,163,456.2461,175,468.2461,163,480.2461,60,480.2461,48,468.2461,60,456.2461" style="stroke: #A80036; stroke-width: 1.5;"/><text fill="#000000" font-family="sans-serif" font-size="11" lengthAdjust="spacingAndGlyphs" textLength="20" x="115.5" y="490.4565">yes</text><text fill="#000000" font-family="sans-serif" font-size="11" lengthAdjust="spacingAndGlyphs" textLength="103" x="60" y="472.0542">coordinates ready</text><polygon fill="#FEFECE" filter="url(#f1guq50wxclbis)" points="111.5,558.6172,123.5,570.6172,111.5,582.6172,99.5,570.6172,111.5,558.6172" style="stroke: #A80036; stroke-width: 1.5;"/><rect fill="#F0E68C" filter="url(#f1guq50wxclbis)" height="33.9688" rx="12.5" ry="12.5" style="stroke: #A80036; stroke-width: 1.5;" width="203" x="10" y="602.6172"/><text fill="#000000" font-family="sans-serif" font-size="12" lengthAdjust="spacingAndGlyphs" textLength="175" x="24" y="623.7559">handle immediate stop task</text><rect fill="#FFA500" filter="url(#f1guq50wxclbis)" height="33.9688" rx="12.5" ry="12.5" style="stroke: #A80036; stroke-width: 1.5;" width="198" x="12.5" y="704.9883"/><text fill="#000000" font-family="sans-serif" font-size="12" lengthAdjust="spacingAndGlyphs" textLength="174" x="26.5" y="726.127">handle route guard timeout</text><polygon fill="#FEFECE" filter="url(#f1guq50wxclbis)" points="54.5,656.5859,168.5,656.5859,180.5,668.5859,168.5,680.5859,54.5,680.5859,42.5,668.5859,54.5,656.5859" style="stroke: #A80036; stroke-width: 1.5;"/><text fill="#000000" font-family="sans-serif" font-size="11" lengthAdjust="spacingAndGlyphs" textLength="20" x="115.5" y="690.7964">yes</text><text fill="#000000" font-family="sans-serif" font-size="11" lengthAdjust="spacingAndGlyphs" textLength="114" x="54.5" y="672.394">route guard timeout</text><polygon fill="#FEFECE" filter="url(#f1guq50wxclbis)" points="111.5,758.957,123.5,770.957,111.5,782.957,99.5,770.957,111.5,758.957" style="stroke: #A80036; stroke-width: 1.5;"/><polygon fill="#FEFECE" filter="url(#f1guq50wxclbis)" points="111.5,157.9375,111.5,157.9375,123.5,169.9375,111.5,181.9375,111.5,181.9375,99.5,169.9375,111.5,157.9375" style="stroke: #A80036; stroke-width: 1.5;"/><line style="stroke: #A80036; stroke-width: 1.5;" x1="111.5" x2="111.5" y1="30" y2="50"/><polygon fill="#A80036" points="107.5,40,111.5,50,115.5,40,111.5,44" style="stroke: #A80036; stroke-width: 1.0;"/><line style="stroke: #A80036; stroke-width: 1.5;" x1="111.5" x2="111.5" y1="83.9688" y2="103.9688"/><polygon fill="#A80036" points="107.5,93.9688,111.5,103.9688,115.5,93.9688,111.5,97.9688" style="stroke: #A80036; stroke-width: 1.0;"/><line style="stroke: #A80036; stroke-width: 1.5;" x1="111.5" x2="111.5" y1="279.9063" y2="304.3086"/><polygon fill="#A80036" points="107.5,294.3086,111.5,304.3086,115.5,294.3086,111.5,298.3086" style="stroke: #A80036; stroke-width: 1.0;"/><line style="stroke: #A80036; stroke-width: 1.5;" x1="195.5" x2="207.5" y1="267.9063" y2="267.9063"/><polygon fill="#A80036" points="203.5,311.293,207.5,321.293,211.5,311.293,207.5,315.293" style="stroke: #A80036; stroke-width: 1.5;"/><line style="stroke: #A80036; stroke-width: 1.5;" x1="207.5" x2="207.5" y1="267.9063" y2="370.2773"/><line style="stroke: #A80036; stroke-width: 1.5;" x1="207.5" x2="123.5" y1="370.2773" y2="370.2773"/><polygon fill="#A80036" points="133.5,366.2773,123.5,370.2773,133.5,374.2773,129.5,370.2773" style="stroke: #A80036; stroke-width: 1.0;"/><line style="stroke: #A80036; stroke-width: 1.5;" x1="111.5" x2="111.5" y1="338.2773" y2="358.2773"/><polygon fill="#A80036" points="107.5,348.2773,111.5,358.2773,115.5,348.2773,111.5,352.2773" style="stroke: #A80036; stroke-width: 1.0;"/><line style="stroke: #A80036; stroke-width: 1.5;" x1="111.5" x2="111.5" y1="235.9063" y2="255.9063"/><polygon fill="#A80036" points="107.5,245.9063,111.5,255.9063,115.5,245.9063,111.5,249.9063" style="stroke: #A80036; stroke-width: 1.0;"/><line style="stroke: #A80036; stroke-width: 1.5;" x1="111.5" x2="111.5" y1="382.2773" y2="402.2773"/><polygon fill="#A80036" points="107.5,392.2773,111.5,402.2773,115.5,392.2773,111.5,396.2773" style="stroke: #A80036; stroke-width: 1.0;"/><line style="stroke: #A80036; stroke-width: 1.5;" x1="111.5" x2="111.5" y1="480.2461" y2="504.6484"/><polygon fill="#A80036" points="107.5,494.6484,111.5,504.6484,115.5,494.6484,111.5,498.6484" style="stroke: #A80036; stroke-width: 1.0;"/><line style="stroke: #A80036; stroke-width: 1.5;" x1="175" x2="194.5" y1="468.2461" y2="468.2461"/><polygon fill="#A80036" points="190.5,511.6328,194.5,521.6328,198.5,511.6328,194.5,515.6328" style="stroke: #A80036; stroke-width: 1.5;"/><line style="stroke: #A80036; stroke-width: 1.5;" x1="194.5" x2="194.5" y1="468.2461" y2="570.6172"/><line style="stroke: #A80036; stroke-width: 1.5;" x1="194.5" x2="123.5" y1="570.6172" y2="570.6172"/><polygon fill="#A80036" points="133.5,566.6172,123.5,570.6172,133.5,574.6172,129.5,570.6172" style="stroke: #A80036; stroke-width: 1.0;"/><line style="stroke: #A80036; stroke-width: 1.5;" x1="111.5" x2="111.5" y1="538.6172" y2="558.6172"/><polygon fill="#A80036" points="107.5,548.6172,111.5,558.6172,115.5,548.6172,111.5,552.6172" style="stroke: #A80036; stroke-width: 1.0;"/><line style="stroke: #A80036; stroke-width: 1.5;" x1="111.5" x2="111.5" y1="436.2461" y2="456.2461"/><polygon fill="#A80036" points="107.5,446.2461,111.5,456.2461,115.5,446.2461,111.5,450.2461" style="stroke: #A80036; stroke-width: 1.0;"/><line style="stroke: #A80036; stroke-width: 1.5;" x1="111.5" x2="111.5" y1="582.6172" y2="602.6172"/><polygon fill="#A80036" points="107.5,592.6172,111.5,602.6172,115.5,592.6172,111.5,596.6172" style="stroke: #A80036; stroke-width: 1.0;"/><line style="stroke: #A80036; stroke-width: 1.5;" x1="111.5" x2="111.5" y1="680.5859" y2="704.9883"/><polygon fill="#A80036" points="107.5,694.9883,111.5,704.9883,115.5,694.9883,111.5,698.9883" style="stroke: #A80036; stroke-width: 1.0;"/><line style="stroke: #A80036; stroke-width: 1.5;" x1="180.5" x2="220.5" y1="668.5859" y2="668.5859"/><polygon fill="#A80036" points="216.5,711.9727,220.5,721.9727,224.5,711.9727,220.5,715.9727" style="stroke: #A80036; stroke-width: 1.5;"/><line style="stroke: #A80036; stroke-width: 1.5;" x1="220.5" x2="220.5" y1="668.5859" y2="770.957"/><line style="stroke: #A80036; stroke-width: 1.5;" x1="220.5" x2="123.5" y1="770.957" y2="770.957"/><polygon fill="#A80036" points="133.5,766.957,123.5,770.957,133.5,774.957,129.5,770.957" style="stroke: #A80036; stroke-width: 1.0;"/><line style="stroke: #A80036; stroke-width: 1.5;" x1="111.5" x2="111.5" y1="738.957" y2="758.957"/><polygon fill="#A80036" points="107.5,748.957,111.5,758.957,115.5,748.957,111.5,752.957" style="stroke: #A80036; stroke-width: 1.0;"/><line style="stroke: #A80036; stroke-width: 1.5;" x1="111.5" x2="111.5" y1="636.5859" y2="656.5859"/><polygon fill="#A80036" points="107.5,646.5859,111.5,656.5859,115.5,646.5859,111.5,650.5859" style="stroke: #A80036; stroke-width: 1.0;"/><line style="stroke: #A80036; stroke-width: 1.5;" x1="111.5" x2="111.5" y1="181.9375" y2="201.9375"/><polygon fill="#A80036" points="107.5,191.9375,111.5,201.9375,115.5,191.9375,111.5,195.9375" style="stroke: #A80036; stroke-width: 1.0;"/><line style="stroke: #A80036; stroke-width: 1.5;" x1="111.5" x2="111.5" y1="782.957" y2="792.957"/><line style="stroke: #A80036; stroke-width: 1.5;" x1="111.5" x2="238.5" y1="792.957" y2="792.957"/><polygon fill="#A80036" points="234.5,485.1484,238.5,475.1484,242.5,485.1484,238.5,481.1484" style="stroke: #A80036; stroke-width: 1.5;"/><line style="stroke: #A80036; stroke-width: 1.5;" x1="238.5" x2="238.5" y1="169.9375" y2="792.957"/><line style="stroke: #A80036; stroke-width: 1.5;" x1="238.5" x2="123.5" y1="169.9375" y2="169.9375"/><polygon fill="#A80036" points="133.5,165.9375,123.5,169.9375,133.5,173.9375,129.5,169.9375" style="stroke: #A80036; stroke-width: 1.0;"/><line style="stroke: #A80036; stroke-width: 1.5;" x1="111.5" x2="111.5" y1="137.9375" y2="157.9375"/><polygon fill="#A80036" points="107.5,147.9375,111.5,157.9375,115.5,147.9375,111.5,151.9375" style="stroke: #A80036; stroke-width: 1.0;"/><!--MD5=[e4a1cde902e5432196c4d637b09d6354]
@startuml superloop

start
#palegreen: init devices layer;
#orange: init domain layer;

while ()

#khaki: handle manual control task ;
if (remote commands ready) then (yes)
    #orange: handle commands;
endif

#khaki: handle route tracking task ;
if (coordinates ready) then (yes)
    #orange: handle coordinates;
endif

#khaki: handle immediate stop task ;
if (route guard timeout) then (yes)
    #orange: handle route guard timeout;
endif

endwhile
-[hidden]->
detach

@enduml

PlantUML version 1.2020.02(Sun Mar 01 11:22:07 CET 2020)
(GPL source distribution)
Java Runtime: OpenJDK Runtime Environment
JVM: OpenJDK 64-Bit Server VM
Java Version: 21.0.7+6-Debian-1
Operating System: Linux
Default Encoding: UTF-8
Language: pl
Country: PL
--></g></svg>